<!DOCTYPE svg PUBLIC "-//W3C//DTD SVG 1.1//EN" "http://www.w3.org/Graphics/SVG/1.1/DTD/svg11.dtd">
<!-- Uploaded to: SVG Repo, www.svgrepo.com, Transformed by: SVG Repo Mixer Tools -->
<svg height="64px" width="64px" version="1.1" id="Layer_1" xmlns="http://www.w3.org/2000/svg" xmlns:xlink="http://www.w3.org/1999/xlink" viewBox="0 0 512 512" xml:space="preserve" fill="#000000">
<g id="SVGRepo_bgCarrier" stroke-width="0"/>
<g id="SVGRepo_tracerCarrier" stroke-linecap="round" stroke-linejoin="round"/>
<g id="SVGRepo_iconCarrier"> <path style="fill:#8FE5FF;" d="M506.398,232.597c2.516,0,4.805-1.707,5.436-4.26c0.745-3.005-1.089-6.044-4.095-6.788l-37.096-9.185 l-13.533-13.52c1.652-2.976,2.542-6.331,2.542-9.827c0-5.424-2.113-10.521-5.951-14.357c-3.837-3.832-8.937-5.942-14.362-5.942 c-3.502,0-6.864,0.892-9.841,2.546l-23.632-23.608c2.318-3.395,3.9-7.209,4.66-11.248l50.794,0.002l27.036,16.277 c0.906,0.546,1.901,0.805,2.886,0.805c1.901,0,3.756-0.968,4.807-2.716c1.596-2.653,0.741-6.098-1.911-7.695l-20.391-12.277 l20.391-12.275c2.652-1.597,3.507-5.041,1.911-7.695c-1.596-2.65-5.04-3.507-7.695-1.911l-27.035,16.274l-50.795-0.002 c-0.76-4.039-2.341-7.853-4.66-11.245l23.632-23.608c2.98,1.654,6.341,2.546,9.842,2.546c5.424,0,10.525-2.11,14.361-5.943 c3.841-3.834,5.954-8.933,5.954-14.354c0-3.499-0.892-6.855-2.546-9.832l13.53-13.516l37.1-9.186 c3.006-0.745,4.84-3.783,4.095-6.788c-0.745-3.007-3.792-4.835-6.788-4.095L475.461,36.5l7.333-29.54 c0.746-3.005-1.085-6.044-4.09-6.79c-3.003-0.75-6.045,1.085-6.79,4.09l-9.198,37.051l-13.537,13.522 c-2.98-1.653-6.339-2.545-9.841-2.545c-5.425,0-10.526,2.11-14.361,5.942c-3.839,3.833-5.955,8.931-5.955,14.353 c0,3.499,0.892,6.856,2.546,9.832l-23.635,23.61c-3.4-2.321-7.221-3.903-11.268-4.664V50.642l16.294-27.01 c1.598-2.651,0.746-6.095-1.905-7.696c-2.647-1.596-6.095-0.747-7.696,1.905l-12.298,20.385L368.76,17.842 c-1.598-2.651-5.045-3.502-7.696-1.902c-2.651,1.599-3.502,5.045-1.902,7.696l16.293,26.998v50.73 c-4.046,0.76-7.867,2.342-11.265,4.663l-23.636-23.609c1.654-2.975,2.545-6.329,2.545-9.826c0-5.424-2.114-10.525-5.953-14.359 c-3.836-3.832-8.937-5.943-14.362-5.943c-3.502,0-6.863,0.892-9.84,2.545l-13.541-13.522l-9.193-37.054 c-0.746-3.005-3.787-4.842-6.79-4.09c-3.005,0.745-4.836,3.786-4.09,6.79l7.33,29.541l-28.022-6.94 c-0.808-0.377-4.466-0.379-5.283,0.007l-28.006,6.934l7.33-29.54c0.746-3.005-1.086-6.047-4.091-6.79 c-3.001-0.75-6.045,1.086-6.79,4.09l-9.193,37.053l-13.538,13.521c-2.979-1.653-6.339-2.545-9.841-2.545 c-5.425,0-10.526,2.11-14.363,5.943c-3.838,3.833-5.952,8.931-5.952,14.352c-0.001,3.499,0.891,6.856,2.545,9.834l-23.635,23.609 c-3.4-2.321-7.22-3.903-11.266-4.663L136.55,50.64l16.294-27.008c1.6-2.651,0.747-6.095-1.903-7.696 c-2.65-1.598-6.097-0.747-7.696,1.905l-12.299,20.385l-12.303-20.382c-1.599-2.651-5.045-3.504-7.696-1.902 c-2.651,1.598-3.503,5.045-1.903,7.696l16.293,27l0.001,50.729c-4.046,0.76-7.868,2.342-11.267,4.663l-23.635-23.61 c1.654-2.975,2.544-6.329,2.545-9.827c0-5.424-2.114-10.523-5.953-14.358c-3.837-3.832-8.937-5.943-14.362-5.943 c-3.502,0-6.861,0.891-9.84,2.544L49.284,41.313L40.089,4.257c-0.746-3.005-3.779-4.838-6.792-4.09 c-3.005,0.746-4.836,3.786-4.091,6.79l7.331,29.541L6.956,29.173c-3.003-0.745-6.044,1.089-6.789,4.093 c-0.744,3.006,1.089,6.045,4.095,6.789l37.097,9.187l13.533,13.516c-1.654,2.976-2.545,6.333-2.545,9.832 c0,5.423,2.114,10.52,5.951,14.353c3.838,3.833,8.939,5.945,14.364,5.945c3.503,0,6.863-0.892,9.842-2.546l23.634,23.608 c-2.32,3.393-3.902,7.208-4.663,11.245l-50.795,0.002l-27.035-16.275c-2.655-1.599-6.098-0.741-7.694,1.911 c-1.597,2.652-0.741,6.098,1.911,7.695l20.392,12.277l-20.391,12.278c-2.652,1.597-3.508,5.043-1.911,7.695 c1.051,1.746,2.906,2.716,4.807,2.716c0.984,0,1.981-0.26,2.886-0.805l27.035-16.277l50.793-0.002 c0.761,4.039,2.343,7.854,4.664,11.248l-23.634,23.606c-2.979-1.653-6.339-2.545-9.841-2.545c-5.425,0-10.526,2.11-14.362,5.941 c-3.839,3.834-5.953,8.933-5.955,14.357c0,3.498,0.891,6.855,2.544,9.83l-13.532,13.518l-37.097,9.185 c-3.006,0.745-4.838,3.783-4.095,6.788c0.632,2.554,2.92,4.26,5.438,4.26c0.446,0,0.899-0.054,1.352-0.166l29.582-7.325 l-7.331,29.545c-0.333,1.35-0.019,2.626,0,2.701l7.33,29.54l-29.582-7.325c-3.007-0.745-6.045,1.089-6.789,4.095 c-0.744,3.005,1.089,6.044,4.095,6.788l37.099,9.186l13.533,13.516c-1.656,2.977-2.546,6.334-2.546,9.832 c0,5.423,2.114,10.52,5.951,14.353c3.838,3.833,8.939,5.945,14.364,5.945c3.503,0,6.864-0.892,9.844-2.546l23.631,23.606 c-2.321,3.395-3.902,7.209-4.664,11.248l-50.794,0.003l-27.035-16.277c-2.655-1.599-6.098-0.741-7.694,1.911 c-1.597,2.652-0.741,6.098,1.911,7.695l20.391,12.277l-20.39,12.274c-2.652,1.597-3.508,5.041-1.912,7.695 c1.053,1.747,2.906,2.716,4.808,2.716c0.984,0,1.981-0.259,2.885-0.805l27.035-16.274l50.793-0.003 c0.761,4.039,2.343,7.854,4.664,11.248l-23.63,23.608c-2.979-1.654-6.339-2.545-9.842-2.545c-5.425,0-10.528,2.11-14.362,5.943 c-3.839,3.833-5.953,8.931-5.955,14.353c-0.001,3.499,0.891,6.856,2.545,9.834l-13.532,13.517l-37.097,9.185 c-3.006,0.745-4.838,3.783-4.095,6.788c0.632,2.554,2.92,4.26,5.438,4.26c0.446,0,0.899-0.054,1.352-0.166l29.582-7.325 l-7.331,29.542c-0.746,3.005,1.086,6.045,4.091,6.79c0.453,0.113,0.908,0.167,1.354,0.167c2.516,0,4.803-1.705,5.436-4.257 l9.196-37.057l13.538-13.521c2.98,1.654,6.341,2.546,9.842,2.546c5.425,0,10.526-2.11,14.364-5.943 c3.838-3.834,5.952-8.933,5.951-14.357c-0.001-3.498-0.891-6.854-2.545-9.829l23.634-23.606c3.4,2.321,7.22,3.903,11.266,4.663 l0.001,50.729l-16.294,27c-1.599,2.651-0.747,6.095,1.903,7.696c0.906,0.548,1.905,0.807,2.891,0.807c1.9,0,3.752-0.965,4.805-2.711 l12.299-20.38l12.298,20.38c1.053,1.744,2.906,2.711,4.806,2.711c0.985,0,1.984-0.26,2.89-0.807 c2.651-1.598,3.503-5.045,1.903-7.696l-16.291-27l-0.001-50.728c4.046-0.761,7.869-2.343,11.269-4.664l23.634,23.606 c-1.654,2.975-2.544,6.331-2.545,9.829c-0.001,5.425,2.113,10.523,5.951,14.357c3.837,3.833,8.938,5.943,14.364,5.943 c3.503,0,6.864-0.892,9.842-2.546l13.541,13.523l9.191,37.054c0.633,2.552,2.921,4.258,5.436,4.258c0.446,0,0.901-0.054,1.354-0.167 c3.005-0.745,4.836-3.784,4.091-6.789l-7.327-29.543l27.961,6.924c0.744,0.357,4.643,0.357,5.388,0l27.961-6.924l-7.33,29.542 c-0.746,3.005,1.085,6.047,4.09,6.79c0.453,0.113,0.908,0.167,1.355,0.167c2.515,0,4.802-1.705,5.435-4.257l9.195-37.055 l13.537-13.522c2.98,1.654,6.341,2.545,9.842,2.545c5.428,0,10.528-2.11,14.367-5.943c3.838-3.834,5.95-8.934,5.95-14.358 c-0.001-3.498-0.892-6.853-2.546-9.827l23.634-23.606c3.398,2.321,7.221,3.903,11.268,4.663v50.73l-16.293,26.998 c-1.599,2.651-0.749,6.095,1.902,7.696c0.907,0.548,1.905,0.807,2.891,0.807c1.898,0,3.752-0.965,4.803-2.711l12.3-20.381 l12.298,20.381c1.053,1.744,2.905,2.711,4.805,2.711c0.987,0,1.986-0.26,2.891-0.807c2.651-1.598,3.502-5.045,1.902-7.696 l-16.29-26.998v-50.732c4.046-0.76,7.868-2.342,11.268-4.663l23.634,23.606c-1.653,2.975-2.545,6.331-2.545,9.829 c-0.001,5.425,2.113,10.524,5.951,14.357c3.837,3.833,8.938,5.943,14.364,5.943c3.503,0,6.864-0.891,9.842-2.545l13.538,13.523 l9.196,37.054c0.633,2.551,2.921,4.257,5.435,4.257c0.447,0,0.902-0.054,1.355-0.167c3.005-0.746,4.836-3.786,4.09-6.79 l-7.331-29.542l29.582,7.325c0.452,0.112,0.906,0.166,1.352,0.166c2.516,0,4.805-1.707,5.436-4.26 c0.745-3.005-1.089-6.044-4.095-6.788l-37.096-9.185l-13.533-13.518c1.652-2.976,2.543-6.332,2.543-9.83 c0-5.423-2.113-10.52-5.95-14.354c-3.837-3.833-8.938-5.943-14.363-5.943c-3.502,0-6.863,0.891-9.841,2.545l-23.632-23.606 c2.318-3.393,3.9-7.208,4.66-11.246l50.794,0.003l27.036,16.277c0.906,0.546,1.901,0.803,2.886,0.803 c1.901,0,3.756-0.968,4.807-2.716c1.596-2.653,0.741-6.098-1.911-7.695l-20.392-12.277l20.392-12.277 c2.652-1.597,3.507-5.041,1.911-7.695c-1.596-2.651-5.04-3.503-7.695-1.911l-27.036,16.277l-50.793-0.003 c-0.76-4.039-2.342-7.854-4.661-11.248l23.634-23.606c2.978,1.654,6.338,2.546,9.84,2.546c5.424,0,10.525-2.11,14.362-5.943 c3.839-3.833,5.954-8.932,5.954-14.354c0-3.498-0.892-6.855-2.546-9.831l13.53-13.516l37.1-9.186 c3.006-0.745,4.84-3.783,4.095-6.788c-0.745-3.006-3.792-4.836-6.788-4.095l-29.584,7.325l7.333-29.542 c0.358-1.355,0.019-2.626,0-2.701l-7.332-29.545l29.583,7.325C505.498,232.543,505.952,232.597,506.398,232.597z M462.717,291.705 l-13.537,13.522c-2.979-1.654-6.339-2.545-9.841-2.545c-5.426,0-10.528,2.11-14.361,5.943c-3.839,3.833-5.954,8.932-5.954,14.356 c0,3.499,0.892,6.855,2.546,9.83l-23.635,23.608c-3.4-2.321-7.221-3.903-11.268-4.664v-50.719l16.294-27.01 c1.598-2.651,0.746-6.097-1.905-7.696c-2.647-1.597-6.095-0.747-7.696,1.905l-12.298,20.385l-12.301-20.384 c-1.598-2.651-5.045-3.503-7.696-1.902c-2.651,1.599-3.502,5.045-1.902,7.696l16.293,26.998v50.728 c-4.046,0.76-7.867,2.342-11.265,4.663l-23.635-23.608c1.653-2.975,2.544-6.328,2.544-9.825c0-5.425-2.114-10.525-5.952-14.358 c-3.836-3.834-8.938-5.945-14.363-5.945c-3.502,0-6.864,0.891-9.841,2.545l-13.54-13.522l-8.858-35.702l8.859-35.707l13.537-13.522 c2.98,1.654,6.341,2.546,9.842,2.546c5.428,0,10.527-2.111,14.367-5.945c3.837-3.834,5.95-8.932,5.95-14.354 c-0.001-3.499-0.892-6.855-2.546-9.83l23.632-23.608c3.4,2.322,7.223,3.905,11.269,4.665v50.728l-16.293,26.998 c-1.6,2.651-0.749,6.095,1.902,7.696c0.907,0.547,1.905,0.807,2.891,0.807c1.898,0,3.752-0.965,4.803-2.711l12.299-20.381 l12.298,20.382c1.054,1.745,2.906,2.712,4.805,2.712c0.987,0,1.986-0.26,2.89-0.806c2.652-1.599,3.503-5.045,1.905-7.696 l-16.291-27.003V160.25c4.046-0.76,7.868-2.343,11.269-4.664l23.632,23.608c-1.654,2.976-2.546,6.333-2.545,9.832 c0,5.424,2.114,10.52,5.951,14.352c3.837,3.833,8.938,5.945,14.364,5.945c3.503,0,6.864-0.892,9.842-2.546l13.538,13.523 l8.86,35.706L462.717,291.705z M394.34,394.46c-0.001,0.001-0.001,0.001-0.003,0.004c-3.548,3.539-8.263,5.487-13.277,5.487 c-5.014,0-9.73-1.948-13.277-5.487c-0.001-0.003-0.001-0.003-0.003-0.004c-0.003-0.001-0.004-0.004-0.006-0.005 c-3.539-3.537-5.489-8.235-5.495-13.233c0-0.009,0.003-0.017,0.003-0.026c0-0.007-0.003-0.016-0.003-0.025 c0.008-4.999,1.957-9.698,5.5-13.236c3.548-3.544,8.264-5.495,13.281-5.495c5.018,0,9.735,1.951,13.283,5.495 c3.547,3.542,5.497,8.25,5.497,13.261c0,5.008-1.952,9.717-5.495,13.259C394.343,394.456,394.342,394.459,394.34,394.46z M322.782,419.11c-5.425,0-10.526,2.11-14.362,5.943c-3.838,3.833-5.952,8.931-5.953,14.353c0,3.499,0.891,6.855,2.545,9.832 l-13.533,13.518l-35.475,8.784l-35.477-8.785l-13.535-13.518c1.654-2.976,2.545-6.333,2.545-9.832 c-0.001-5.423-2.114-10.519-5.952-14.353c-3.837-3.833-8.938-5.943-14.363-5.943c-3.503,0-6.864,0.891-9.841,2.545l-23.632-23.605 c2.321-3.395,3.902-7.209,4.663-11.248l50.795,0.003l27.033,16.277c0.906,0.546,1.902,0.803,2.886,0.803 c1.901,0,3.756-0.968,4.807-2.716c1.597-2.652,0.741-6.098-1.911-7.695l-20.391-12.277l20.389-12.277 c2.652-1.597,3.508-5.043,1.911-7.695c-1.596-2.653-5.04-3.503-7.694-1.911l-27.031,16.277l-50.795-0.003 c-0.761-4.039-2.342-7.854-4.663-11.248l23.634-23.606c2.979,1.654,6.339,2.546,9.841,2.546c5.424,0,10.525-2.11,14.361-5.943 c3.841-3.833,5.955-8.931,5.956-14.353c0.001-3.499-0.891-6.856-2.545-9.834l13.532-13.515l35.482-8.786l35.473,8.784l13.533,13.516 c-1.654,2.976-2.546,6.333-2.546,9.831c0,5.423,2.114,10.523,5.952,14.356c3.837,3.833,8.938,5.945,14.363,5.945 c3.503,0,6.864-0.892,9.842-2.546l23.634,23.606c-2.321,3.395-3.903,7.209-4.664,11.248l-50.793,0.003l-27.033-16.277 c-2.648-1.596-6.098-0.741-7.695,1.911c-1.596,2.652-0.741,6.098,1.911,7.695l20.39,12.277l-20.39,12.274 c-2.652,1.597-3.507,5.041-1.911,7.695c1.053,1.746,2.906,2.716,4.807,2.716c0.984,0,1.982-0.26,2.886-0.805l27.033-16.274 l50.793-0.003c0.76,4.039,2.342,7.854,4.661,11.248l-23.632,23.605C329.643,420.001,326.284,419.11,322.782,419.11z M130.942,399.951c-5.018,0-9.735-1.951-13.283-5.495c-3.539-3.535-5.49-8.23-5.497-13.227c0-0.011,0.002-0.022,0.002-0.032 c0-0.011-0.002-0.022-0.002-0.022c0.009-5.008,1.958-9.703,5.497-13.238c0,0,0.001-0.001,0.001-0.003c0.001,0,0.002,0,0.002,0 l0.001-0.003c3.547-3.54,8.262-5.49,13.277-5.49c5.018,0,9.735,1.951,13.283,5.495c3.547,3.543,5.499,8.252,5.499,13.261 c0.001,5.009-1.952,9.718-5.499,13.261C140.677,398.001,135.96,399.951,130.942,399.951z M87.028,308.627 c-3.837-3.834-8.938-5.945-14.363-5.945c-3.503,0-6.863,0.891-9.841,2.545l-13.538-13.522l-8.86-35.702l8.861-35.71l13.536-13.521 c2.98,1.654,6.341,2.546,9.842,2.546c5.425,0,10.526-2.111,14.364-5.945c3.838-3.833,5.951-8.932,5.951-14.354 c0-3.498-0.891-6.855-2.545-9.831l23.634-23.608c3.4,2.322,7.22,3.905,11.267,4.665l0.001,50.727l-16.294,27 c-1.599,2.651-0.747,6.095,1.903,7.696c0.906,0.547,1.905,0.807,2.891,0.807c1.9,0,3.752-0.965,4.805-2.711l12.3-20.381 l12.296,20.382c1.053,1.745,2.906,2.712,4.806,2.712c0.985,0,1.984-0.26,2.89-0.806c2.651-1.6,3.503-5.045,1.903-7.696 l-16.291-27.002l-0.001-50.728c4.047-0.76,7.869-2.343,11.269-4.665l23.632,23.609c-1.654,2.976-2.545,6.333-2.544,9.832 c0,5.424,2.114,10.52,5.951,14.352c3.837,3.833,8.938,5.945,14.364,5.945c3.503,0,6.864-0.892,9.842-2.546l13.54,13.522L221.457,256 l-8.858,35.706l-13.537,13.522c-2.979-1.654-6.339-2.546-9.842-2.546c-5.426,0-10.528,2.11-14.363,5.943 c-3.838,3.833-5.952,8.932-5.952,14.354c0,3.498,0.891,6.854,2.545,9.83l-23.635,23.608c-3.4-2.321-7.221-3.903-11.267-4.663 l-0.001-50.722l16.294-27.008c1.599-2.651,0.747-6.097-1.903-7.696c-2.65-1.597-6.097-0.747-7.696,1.905l-12.299,20.385 l-12.3-20.384c-1.599-2.651-5.045-3.503-7.696-1.902c-2.651,1.598-3.503,5.045-1.903,7.696l16.293,27l0.001,50.727 c-4.046,0.76-7.868,2.342-11.267,4.663L90.435,332.81c1.653-2.975,2.543-6.329,2.544-9.826 C92.98,317.56,90.866,312.461,87.028,308.627z M117.664,117.542L117.664,117.542c3.548-3.542,8.263-5.491,13.278-5.491 c5.018,0,9.735,1.951,13.284,5.496c3.545,3.54,5.499,8.248,5.499,13.256c0.001,5.009-1.952,9.719-5.499,13.262 c-3.545,3.543-8.259,5.495-13.274,5.497c-0.002,0-0.005-0.001-0.009-0.001c-0.002,0-0.005,0-0.007,0 c-5.014-0.001-9.728-1.953-13.273-5.496c-3.539-3.535-5.49-8.23-5.497-13.226c0-0.012,0.002-0.021,0.002-0.034 c0-0.011-0.002-0.021-0.002-0.031c0.009-4.995,1.958-9.692,5.497-13.226l0.001-0.002 C117.661,117.543,117.663,117.543,117.664,117.542z M189.221,92.89c5.424,0,10.524-2.11,14.361-5.943 c3.839-3.834,5.953-8.932,5.955-14.353c0.001-3.499-0.891-6.856-2.546-9.834l13.532-13.516l35.482-8.786l35.473,8.785l13.532,13.516 c-1.654,2.976-2.545,6.332-2.545,9.83c0,5.424,2.114,10.521,5.952,14.356c3.837,3.833,8.938,5.945,14.363,5.945 c3.503,0,6.864-0.892,9.841-2.546l23.635,23.608c-2.321,3.393-3.903,7.208-4.664,11.245l-50.793,0.002l-27.033-16.277 c-2.648-1.596-6.098-0.741-7.695,1.911c-1.596,2.652-0.741,6.098,1.911,7.695l20.39,12.277l-20.39,12.277 c-2.652,1.597-3.507,5.043-1.911,7.695c1.053,1.746,2.906,2.716,4.807,2.716c0.985,0,1.982-0.26,2.886-0.805l27.033-16.277 l50.792-0.003c0.761,4.039,2.342,7.854,4.663,11.248l-23.634,23.606c-2.978-1.653-6.338-2.545-9.84-2.545 c-5.425,0-10.525,2.11-14.362,5.942c-3.839,3.833-5.953,8.932-5.953,14.356c0,3.498,0.891,6.854,2.544,9.829l-13.532,13.52 l-35.475,8.784l-35.477-8.785l-13.535-13.519c1.653-2.974,2.544-6.328,2.544-9.825c0-5.425-2.113-10.524-5.952-14.359 c-3.837-3.832-8.938-5.942-14.363-5.942c-3.503,0-6.863,0.892-9.842,2.546l-23.632-23.608c2.321-3.395,3.903-7.209,4.664-11.248 l50.795,0.002l27.033,16.277c0.906,0.546,1.902,0.805,2.886,0.805c1.901,0,3.756-0.968,4.807-2.716 c1.597-2.652,0.741-6.098-1.911-7.695l-20.39-12.277l20.387-12.275c2.652-1.597,3.508-5.043,1.911-7.695 c-1.596-2.65-5.039-3.503-7.694-1.911l-27.031,16.274l-50.795-0.002c-0.761-4.039-2.342-7.854-4.663-11.245l23.634-23.608 C182.359,91.998,185.72,92.89,189.221,92.89z M381.06,112.05c5.014,0,9.73,1.948,13.277,5.487c0.001,0.002,0.001,0.002,0.003,0.004 c0.003,0.001,0.004,0.004,0.006,0.005c3.543,3.54,5.495,8.247,5.495,13.253c0.001,5.01-1.951,9.722-5.497,13.263 c-3.547,3.543-8.26,5.495-13.274,5.497c-0.004,0-0.006-0.001-0.009-0.001c-0.003,0-0.005,0.001-0.009,0.001 c-5.01-0.002-9.723-1.952-13.268-5.49c-0.001-0.002-0.001-0.002-0.003-0.004c-0.003-0.001-0.004-0.004-0.006-0.005 c-3.539-3.537-5.489-8.234-5.495-13.233c0-0.009,0.003-0.017,0.003-0.017c0-0.016-0.003-0.022-0.003-0.022 c0.008-5.008,1.957-9.705,5.5-13.243C371.326,114.001,376.043,112.05,381.06,112.05z M331.888,189.019 c0,2.425-0.947,4.706-2.662,6.422c-1.722,1.718-4.01,2.666-6.444,2.666c-2.429,0-4.714-0.944-6.434-2.658 c-0.001-0.002-0.001-0.002-0.003-0.004c-0.002-0.001-0.004-0.004-0.006-0.005c-1.717-1.717-2.663-3.996-2.663-6.423 c0-2.427,0.947-4.708,2.665-6.424c1.72-1.717,4.007-2.663,6.44-2.663c2.429,0,4.714,0.944,6.433,2.656 c0.001,0.002,0.001,0.002,0.003,0.004c0.003,0.001,0.004,0.004,0.006,0.005C330.94,184.311,331.887,186.593,331.888,189.019z M279.328,254.651c-0.316,1.35-0.019,2.626,0,2.701l7.33,29.54l-28.025-6.939c-0.807-0.377-4.467-0.379-5.286,0.007l-28.002,6.934 l7.33-29.542c0.308-1.1,0.019-2.625,0-2.699l-7.329-29.546l27.961,6.924c0.744,0.358,4.643,0.358,5.388,0l27.963-6.924 L279.328,254.651z M182.774,182.6c0.004-0.004,0.009-0.006,0.012-0.01c0.004-0.004,0.005-0.007,0.009-0.01 c1.718-1.71,3.999-2.652,6.427-2.652c2.433,0,4.72,0.947,6.439,2.663c1.719,1.717,2.665,3.999,2.665,6.427 c0,2.425-0.947,4.705-2.665,6.422c-1.719,1.719-4.006,2.666-6.439,2.666c-2.434,0-4.721-0.947-6.442-2.667 c-1.717-1.714-2.662-3.994-2.662-6.419C180.115,186.595,181.059,184.317,182.774,182.6z M182.78,329.404 c-1.718-1.717-2.665-3.998-2.665-6.423c0-2.425,0.945-4.706,2.666-6.424c1.719-1.718,4.005-2.663,6.439-2.663 c2.433,0,4.72,0.945,6.44,2.665c1.719,1.718,2.666,4,2.666,6.427c0,2.424-0.947,4.705-2.666,6.422 c-1.72,1.718-4.006,2.665-6.439,2.665C186.789,332.071,184.5,331.123,182.78,329.404z M316.349,316.553 c0.001,0,0.001-0.003,0.003-0.003c1.719-1.714,4.002-2.657,6.432-2.657c2.433,0,4.719,0.946,6.439,2.665 c1.719,1.718,2.666,4,2.666,6.427c0,2.422-0.944,4.699-2.661,6.414c-0.003,0.004-0.006,0.005-0.01,0.009 c-0.003,0.003-0.004,0.006-0.006,0.009c-1.719,1.713-4.001,2.655-6.429,2.655c-2.433,0-4.719-0.945-6.44-2.665 c-1.718-1.717-2.665-3.999-2.665-6.424c0-2.427,0.947-4.708,2.666-6.424C316.344,316.557,316.347,316.556,316.349,316.553z M445.776,182.592c1.718,1.717,2.665,4,2.665,6.427s-0.945,4.708-2.663,6.423c-1.72,1.719-4.007,2.666-6.44,2.666 s-4.72-0.947-6.442-2.667c-1.718-1.714-2.663-3.994-2.663-6.419c0-2.422,0.943-4.7,2.656-6.417c0.005-0.005,0.01-0.007,0.015-0.012 c0.004-0.004,0.006-0.009,0.01-0.012c1.719-1.707,4-2.65,6.425-2.65C441.771,179.929,444.059,180.876,445.776,182.592z M432.899,66.165c1.719-1.718,4.005-2.663,6.438-2.663s4.719,0.945,6.439,2.663c1.72,1.719,2.668,4.001,2.668,6.428 c0,2.424-0.947,4.705-2.666,6.423c-1.72,1.717-4.006,2.663-6.439,2.663c-2.429,0-4.714-0.944-6.434-2.658 c-0.001-0.002-0.001-0.002-0.003-0.004c-0.003-0.001-0.004-0.004-0.006-0.005c-1.718-1.718-2.665-3.999-2.665-6.425 C430.232,70.162,431.179,67.881,432.899,66.165z M329.222,66.165c1.719,1.718,2.666,4,2.666,6.427c0,2.424-0.947,4.705-2.667,6.422 c-1.72,1.719-4.006,2.666-6.439,2.666s-4.719-0.947-6.44-2.666c-1.718-1.717-2.665-3.999-2.665-6.424c0-2.423,0.944-4.7,2.657-6.415 c0.005-0.006,0.011-0.009,0.016-0.014c0.004-0.004,0.006-0.007,0.009-0.011c1.719-1.705,3.997-2.647,6.424-2.647 C325.216,63.501,327.502,64.447,329.222,66.165z M182.78,66.165c1.719-1.718,4.006-2.663,6.439-2.663 c2.433,0,4.721,0.947,6.439,2.663c1.72,1.718,2.667,4.001,2.667,6.428c0,2.424-0.947,4.706-2.666,6.423 c-1.719,1.717-4.006,2.663-6.438,2.663c-2.43,0-4.715-0.944-6.434-2.658c-0.001-0.002-0.001-0.002-0.002-0.004 c-0.001-0.001-0.004-0.004-0.006-0.005c-1.718-1.717-2.663-3.999-2.663-6.425C180.115,70.161,181.062,67.881,182.78,66.165z M66.222,79.013c-1.718-1.715-2.663-3.996-2.663-6.422c0-2.424,0.945-4.705,2.662-6.422c0.002-0.005,0.007-0.006,0.011-0.01 c0.001-0.002,0.004-0.005,0.005-0.007c1.718-1.708,3.999-2.651,6.428-2.651c2.433,0,4.72,0.945,6.439,2.663 c1.719,1.718,2.666,4,2.666,6.427c0,2.424-0.945,4.701-2.661,6.419c-0.002,0.002-0.006,0.004-0.009,0.006 c-0.001,0.001-0.002,0.004-0.004,0.005c-1.719,1.714-4.002,2.657-6.432,2.657C70.229,81.679,67.941,80.732,66.222,79.013z M66.223,182.593c1.719-1.718,4.006-2.663,6.439-2.663c2.434,0,4.721,0.947,6.44,2.663c1.719,1.718,2.666,4,2.666,6.427 c0,2.425-0.946,4.706-2.663,6.422c-1.72,1.719-4.007,2.666-6.44,2.666c-2.432,0-4.716-0.946-6.437-2.661l0,0l0,0 c-0.001-0.002-0.004-0.004-0.005-0.005c-1.718-1.717-2.665-3.997-2.665-6.424S64.505,184.308,66.223,182.593z M66.222,329.406 c-1.718-1.715-2.663-3.996-2.663-6.422s0.945-4.706,2.665-6.424c0.002-0.002,0.006-0.005,0.009-0.007 c0.001-0.001,0.002-0.003,0.004-0.005c1.719-1.713,4.001-2.655,6.429-2.655c2.433,0,4.719,0.945,6.439,2.665 c1.719,1.718,2.666,4,2.666,6.427c0,2.419-0.943,4.695-2.652,6.41c-0.005,0.005-0.011,0.009-0.017,0.014 c-0.004,0.005-0.007,0.01-0.011,0.015c-1.718,1.708-3.999,2.648-6.424,2.648C70.229,332.071,67.941,331.126,66.222,329.406z M79.105,445.835c-1.72,1.719-4.007,2.665-6.44,2.665c-2.434,0-4.721-0.947-6.442-2.665c-1.719-1.717-2.665-3.999-2.665-6.425 c0.001-2.425,0.947-4.706,2.667-6.424c1.719-1.718,4.005-2.663,6.438-2.663c2.433,0,4.72,0.945,6.44,2.666 c1.718,1.715,2.665,3.996,2.665,6.423C81.769,441.837,80.823,444.119,79.105,445.835z M182.779,445.835 c-1.718-1.715-2.663-3.998-2.663-6.424c0-2.427,0.947-4.708,2.667-6.425c1.719-1.718,4.005-2.663,6.438-2.663 c2.433,0,4.719,0.945,6.439,2.665c1.718,1.717,2.665,3.996,2.665,6.422c0,2.428-0.946,4.71-2.665,6.427 c-1.719,1.719-4.006,2.665-6.439,2.665C186.786,448.499,184.499,447.554,182.779,445.835z M329.226,445.835 c-1.722,1.718-4.01,2.665-6.444,2.665c-2.433,0-4.72-0.945-6.44-2.665c-1.719-1.717-2.666-3.999-2.666-6.427 c0.001-2.425,0.947-4.705,2.666-6.422c1.72-1.719,4.006-2.665,6.439-2.665c2.433,0,4.719,0.945,6.44,2.666 c1.719,1.715,2.666,3.996,2.667,6.423C331.888,441.837,330.943,444.119,329.226,445.835z M445.778,432.985 c1.718,1.715,2.663,3.996,2.663,6.423c0,2.427-0.947,4.71-2.663,6.425c-1.72,1.719-4.007,2.665-6.44,2.665s-4.72-0.945-6.442-2.665 c-1.718-1.717-2.663-3.998-2.663-6.424c0-2.427,0.947-4.708,2.667-6.424c1.72-1.719,4.006-2.665,6.439-2.665 S444.057,431.267,445.778,432.985z M445.779,329.406c-1.72,1.718-4.007,2.665-6.44,2.665s-4.719-0.947-6.44-2.668 c-1.719-1.715-2.666-3.996-2.666-6.422c0-2.425,0.947-4.706,2.668-6.424c1.718-1.718,4.004-2.663,6.437-2.663 c2.433,0,4.719,0.945,6.439,2.666c1.72,1.717,2.668,3.999,2.668,6.425C448.445,325.409,447.498,327.69,445.779,329.406z"/> </g>
</svg>